<svg xmlns="http://www.w3.org/2000/svg" width="64" height="64" id="sanitizer">
  <path fill="#37474F" d="M34 22H24v-8h10v8zm-9-1h8v-6h-8v6z"></path>
  <path fill="#37474F" d="M31 15h-4V9h4v6zm-3-1h2v-4h-2v4z"></path>
  <path fill="#37474F" d="m39.671 11.036-2.484-.414c-2.473-.413-5-.622-7.509-.622H25.5c-.827 0-1.5-.673-1.5-1.5S24.673 7 25.5 7h1.533c4.338 0 8.652.604 12.822 1.795l1.599.458-1.783 1.783zM25.5 8a.5.5 0 0 0 0 1h4.179c2.564 0 5.146.214 7.673.635l1.977.329.217-.217A45.682 45.682 0 0 0 27.033 8H25.5zm4.167 42H21.5a2.503 2.503 0 0 1-2.5-2.5v-15c0-1.378 1.122-2.5 2.5-2.5h20.572v1H21.5c-.827 0-1.5.673-1.5 1.5v15c0 .827.673 1.5 1.5 1.5h8.167v1z"></path>
  <path fill="#37474F" d="M48.5 58h-15a4.505 4.505 0 0 1-4.5-4.5v-7c0-2.481 2.019-4.5 4.5-4.5h15c2.481 0 4.5 2.019 4.5 4.5v7c0 2.481-2.019 4.5-4.5 4.5zm-15-15c-1.93 0-3.5 1.57-3.5 3.5v7c0 1.93 1.57 3.5 3.5 3.5h15c1.93 0 3.5-1.57 3.5-3.5v-7c0-1.93-1.57-3.5-3.5-3.5h-15zm10.596-10.628a10.524 10.524 0 0 0-2.737-7.981A10.528 10.528 0 0 0 33.632 21h-9.264a10.526 10.526 0 0 0-7.727 3.391c-.458.498-.858 1.04-1.208 1.609H16.5c.042 0 .083.01.125.013.232-.328.478-.647.752-.945A9.524 9.524 0 0 1 24.368 22h9.264a9.527 9.527 0 0 1 6.991 3.067 9.53 9.53 0 0 1 2.477 7.222L42.374 41h1.003l.719-8.628zM16.5 58h-10c-.827 0-1.5-.673-1.5-1.5v-28c0-.827.673-1.5 1.5-1.5h10c.827 0 1.5.673 1.5 1.5v28c0 .827-.673 1.5-1.5 1.5zm-10-30a.5.5 0 0 0-.5.5v28a.5.5 0 0 0 .5.5h10a.5.5 0 0 0 .5-.5v-28a.5.5 0 0 0-.5-.5h-10z"></path>
  <path fill="#37474F" d="M15 28H8v-7h7v7zm-6-1h5v-5H9v5z"></path>
  <path fill="#37474F" d="M14 22H9v-6h5v6zm-4-1h3v-4h-3v4z"></path>
  <path fill="#37474F" d="M12 18h1v1h-1zM16 52H7V33h9v1H8v17h8z"></path>
  <path fill="#37474F" d="M15 46h-3v-2h-2v-3h2v-2h3v2h1v1h-2v-2h-1v2h-2v1h2v2h1v-2h2v1h-1zM56 16c-1.103 0-2-.897-2-2s.897-2 2-2 2 .897 2 2-.897 2-2 2zm0-3c-.551 0-1 .449-1 1s.449 1 1 1 1-.449 1-1-.449-1-1-1zm-4.5 18c-.827 0-1.5-.673-1.5-1.5s.673-1.5 1.5-1.5 1.5.673 1.5 1.5-.673 1.5-1.5 1.5zm0-2a.5.5 0 1 0 0 1 .5.5 0 0 0 0-1zm1-21c-.827 0-1.5-.673-1.5-1.5S51.673 5 52.5 5s1.5.673 1.5 1.5S53.327 8 52.5 8zm0-2a.5.5 0 1 0 0 1 .5.5 0 0 0 0-1zM47 13c-1.103 0-2-.897-2-2s.897-2 2-2 2 .897 2 2-.897 2-2 2zm0-3c-.551 0-1 .449-1 1s.449 1 1 1 1-.449 1-1-.449-1-1-1zM46.5 24c-1.93 0-3.5-1.57-3.5-3.5a3.504 3.504 0 0 1 4.083-3.452l-.166.986A2.503 2.503 0 0 0 44 20.5c0 1.378 1.122 2.5 2.5 2.5.939 0 1.791-.519 2.223-1.354l.889.459A3.493 3.493 0 0 1 46.5 24z"></path>
  <path fill="#37474F" d="M50.5 21c-1.378 0-2.5-1.122-2.5-2.5s1.122-2.5 2.5-2.5 2.5 1.122 2.5 2.5-1.122 2.5-2.5 2.5zm0-4c-.827 0-1.5.673-1.5 1.5s.673 1.5 1.5 1.5 1.5-.673 1.5-1.5-.673-1.5-1.5-1.5zM14.5 57H57v1H14.5zM58 57h1v1h-1zM35 53.722V48a1 1 0 0 1 1-1h11.722c-.347-.595-.984-1-1.722-1H36c-1.103 0-2 .897-2 2v4c0 .737.405 1.375 1 1.722z"></path>
</svg>
