<svg xmlns="http://www.w3.org/2000/svg" viewBox="0 0 512 512" id="car">
  <path d="m506.858 206.205-89.961-86.074a16.647 16.647 0 0 0-11.517-4.626H239.346c-4.293 0-8.419 1.66-11.517 4.626l-85.135 81.448H16.659C7.458 201.579 0 209.037 0 218.239v113.284c0 9.202 7.458 16.659 16.659 16.659h48.868v-33.319H33.319v-79.965H149.38c4.293 0 8.419-1.655 11.517-4.62l85.13-81.454h152.667l79.987 76.533v89.511H440.92v33.319h54.421c9.202 0 16.659-7.458 16.659-16.665V218.239c0-4.543-1.86-8.891-5.142-12.034z"></path>
  <path d="M160.486 314.869h186.586v33.319H160.486z"></path>
  <path d="M113.284 269.883c-34.907 0-63.306 28.393-63.306 63.306s28.399 63.306 63.306 63.306 63.306-28.399 63.306-63.306-28.399-63.306-63.306-63.306zm0 93.287c-16.537 0-29.987-13.45-29.987-29.981s13.45-29.987 29.987-29.987c16.532 0 29.987 13.455 29.987 29.987s-13.45 29.981-29.987 29.981zm280.989-93.287c-34.907 0-63.306 28.404-63.306 63.311s28.399 63.3 63.306 63.3 63.306-28.399 63.306-63.306-28.399-63.305-63.306-63.305zm0 93.293c-16.537 0-29.987-13.455-29.987-29.987s13.45-29.987 29.987-29.987 29.987 13.461 29.987 29.993-13.449 29.981-29.987 29.981zM149.38 201.579h345.961v33.319H149.38z"></path>
  <path d="M263.774 132.165h33.319v86.074h-33.319zM352.625 132.165h33.319v86.074h-33.319z"></path>
</svg>
