<svg xmlns="http://www.w3.org/2000/svg" enable-background="new 0 0 24 24" viewBox="0 0 24 24" id="utilities">
  <path id="_icons" d="M16.5996,11.4453c0.6274,0.5049,1.3394,0.7593,2.001,0.7593c0.6035,0,1.1655-0.2119,1.5845-0.6387l1.1968-1.2212
			c0.9678-0.9863,0.7822-2.7212-0.4214-3.9487L20.23,5.6504c-0.8672-0.8848-2.0903-1.2651-3.0552-0.9609
			C16.147,3.7593,13.9414,2,11.959,2c-0.8257,0-1.5571,0.3013-2.1152,0.8701c-0.3433,0.3506-0.3818,0.8979-0.0908,1.293
			l0.4365,0.5928c0.903,1.2264,1.8842,2.3912,2.9324,3.4904l-5.1155,5.2192c-0.2555-0.1371-0.5445-0.2175-0.8549-0.2175H7.1509
			c-0.6338,0-1.29,0.2979-1.7993,0.8179l-2.5576,2.6089c-0.9268,0.9453-1.0591,2.2925-0.3003,3.0674l0.7314,0.7461
			C3.5483,20.8184,3.9971,21,4.4878,21c0.6338,0,1.2896-0.2983,1.7988-0.8179l2.5581-2.6089
			c0.7902-0.8069,0.9968-1.9024,0.5717-2.6883l5.1317-5.2357C15.2112,10.2712,15.8906,10.8756,16.5996,11.4453z M16.3037,6.6211
			c0.188,0.1909,0.4448,0.2988,0.7129,0.2988c0.0005,0,0.001,0,0.001,0c0.2686,0,0.5259-0.1079,0.7139-0.2998
			c0.0884-0.0923,0.6113-0.0386,1.0703,0.4302l0.7305,0.7456c0.4814,0.4912,0.5293,1.0386,0.4214,1.1489l-1.1968,1.2212
			c-0.0728,0.0752-0.4697,0.0693-0.9043-0.2793c-2.1362-1.7173-4.0601-3.6924-5.7241-5.8779
			C13.4204,4.1362,15.3496,5.6509,16.3037,6.6211z M7.4165,16.1729l-2.5576,2.6089c-0.1226,0.125-0.2358,0.1812-0.3062,0.2041
			l-0.5459-0.5566c0.02-0.0806,0.0811-0.2173,0.2148-0.354l2.5576-2.6089c0.1226-0.125,0.2358-0.1812,0.3057-0.2041l0.5459,0.5566
			C7.6113,15.8994,7.5503,16.0361,7.4165,16.1729z"></path>
</svg>
